<!-- <svg xmlns="http://www.w3.org/2000/svg" version="1.1" xmlns:xlink="http://www.w3.org/1999/xlink" xmlns:svgjs="http://svgjs.dev/svgjs" width="1000" height="1125" viewBox="0 0 1000 1125"><g transform="matrix(1,0,0,1,0,0)"><svg viewBox="0 0 320 360" data-background-color="#ffffff" preserveAspectRatio="xMidYMid meet" height="1125" width="1000" xmlns="http://www.w3.org/2000/svg" xmlns:xlink="http://www.w3.org/1999/xlink"><g id="tight-bounds" transform="matrix(1,0,0,1,0,0)"><svg viewBox="0 0 320 360" height="360" width="320"><g><svg></svg></g><g><svg viewBox="0 0 320 360" height="360" width="320"><g><path d="M160 42.18c72.417 0 131.943 56.114 137.63 127.014h22.37c-1.137-17.82-5.308-34.882-12.133-51.185-7.962-18.957-19.716-36.398-34.502-50.805-14.787-14.787-31.848-26.161-50.806-34.503-20.095-8.341-40.948-12.891-62.559-12.891-21.611 0-42.464 4.171-62.559 12.512-18.957 7.962-36.398 19.716-50.806 34.503-14.787 14.787-26.161 31.848-34.502 50.805-6.825 16.303-10.995 33.744-12.133 51.185h22.37c5.687-70.521 65.213-126.635 137.63-126.635zM160 318.199c-72.417 0-131.943-56.114-137.63-127.014h-22.37c1.137 17.82 5.308 34.882 12.133 51.185 7.962 18.957 19.716 36.398 34.502 50.805 14.787 14.787 31.848 26.161 50.806 34.503 19.716 8.341 40.569 12.512 62.559 12.512 21.991 0 42.464-4.171 62.559-12.512 18.957-7.962 36.398-19.716 50.806-34.503 14.787-14.787 26.161-31.848 34.502-50.805 6.825-16.303 10.995-33.744 12.133-51.185h-22.37c-5.687 70.9-65.213 127.014-137.63 127.014z" fill="#4d7e3e" fill-rule="nonzero" stroke="none" stroke-width="1" stroke-linecap="butt" stroke-linejoin="miter" stroke-miterlimit="10" stroke-dasharray="" stroke-dashoffset="0" font-family="none" font-weight="none" font-size="none" text-anchor="none" style="mix-blend-mode: normal" data-fill-palette-color="tertiary"></path></g><g transform="matrix(1,0,0,1,100.6,90)"><svg viewBox="0 0 118.8 180" height="180" width="118.8"><g><svg viewBox="0 0 118.8 180" height="180" width="118.8"><g><svg viewBox="0 0 118.8 180" height="180" width="118.8"><g id="textblocktransform"><svg viewBox="0 0 118.8 180" height="180" width="118.8" id="textblock"><g><svg viewBox="0 0 118.8 180" height="180" width="118.8"><g transform="matrix(1,0,0,1,0,0)"><svg width="118.8" viewBox="-0.84 -30.96 29.039999999999996 44" height="180" data-palette-color="#4d7e3e"><path d="M9.36-17.76L9.36-17.76Q7.16-18.28 5.84-19.6L5.84-19.6Q4.4-21.12 4.4-23.16L4.4-23.16Q4.4-26.48 6.6-28.24L6.6-28.24Q7.88-29.24 9.48-29.24L9.48-29.24Q9.84-29.24 10.04-29.02 10.24-28.8 10.28-28.36L10.28-28.36Q8.64-28.36 7.44-27.08L7.44-27.08Q5.92-25.44 5.92-23.4L5.92-23.4Q5.92-22.16 6.76-20.74 7.6-19.32 9.76-18.8L9.76-18.8Q11.84-24 15.02-27.48 18.2-30.96 21.6-30.96L21.6-30.96Q24.52-30.96 25-28.56L25-28.56Q25.12-28.08 25.12-27.6L25.12-27.6Q25.12-25.52 23.28-23.04L23.28-23.04Q20.48-19.2 15.56-17.96L15.56-17.96Q14.08-17.6 12.48-17.52L12.48-17.52Q10.72-12.08 10.72-7.28 10.72-2.48 12.92-2.48L12.92-2.48Q14.44-2.48 16.4-4.6 18.36-6.72 20.08-9.84L20.08-9.84Q23.44-16 24.76-19.52L24.76-19.52Q25.36-21 25.94-21.72 26.52-22.44 27.36-22.44 28.2-22.44 28.2-21.52L28.2-21.52Q26.76-18.12 25.4-10.12L25.4-10.12Q24-2.6 23.28-0.4 22.56 1.8 21.8 3.66 21.04 5.52 20.2 6.74 19.36 7.96 18.18 9.26 17 10.56 15.68 11.32L15.68 11.32Q12.64 13.04 8.88 13.04L8.88 13.04Q2.64 13.04 0.28 8.88L0.28 8.88Q-0.84 7-0.84 5.3-0.84 3.6-0.44 2.24L-0.44 2.24Q0.52-0.88 2.96-1.96L2.96-1.96Q3.88-2.32 4.6-2.32L4.6-2.32Q5.88-2.32 6.08-1.52L6.08-1.52 6.12-1.28Q3.64-1.28 2.24 1.44L2.24 1.44Q1.32 3.2 1.32 4.68L1.32 4.68Q1.32 10.48 6.24 11.8L6.24 11.8Q7.44 12.12 8.84 12.12L8.84 12.12Q11.6 12.12 13.78 10.68 15.96 9.24 17.24 7.56 18.52 5.88 19.68 2.36 20.84-1.16 21.26-3.04 21.68-4.92 22.1-7.12 22.52-9.32 22.56-9.48 22.6-9.64 22.64-9.86 22.68-10.08 22.74-10.5 22.8-10.92 23.04-11.84L23.04-11.84 22.64-11.84Q20.24-7.28 17.56-4.2 14.88-1.12 12.56-1.12 10.24-1.12 9-2.6L9-2.6Q7.44-4.48 7.44-8.52 7.44-12.56 9.36-17.76ZM21.6-29.8L21.6-29.8Q19.08-29.8 16.78-26.62 14.48-23.44 12.84-18.6L12.84-18.6Q17.96-18.96 21.28-22.72L21.28-22.72Q23.6-25.32 23.6-27.72L23.6-27.72Q23.36-29.68 21.6-29.8Z" opacity="1" transform="matrix(1,0,0,1,0,0)" fill="#4d7e3e" class="wordmark-text-0" data-fill-palette-color="primary" id="text-0"></path></svg></g></svg></g></svg></g></svg></g><g></g></svg></g></svg></g></svg></g><defs></defs></svg><rect width="320" height="360" fill="none" stroke="none" visibility="hidden"></rect></g></svg></g></svg> -->

<svg xmlns="http://www.w3.org/2000/svg" version="1.1" xmlns:xlink="http://www.w3.org/1999/xlink" xmlns:svgjs="http://svgjs.dev/svgjs" width="1000" height="1000" viewBox="0 0 1000 1000"><g transform="matrix(1,0,0,1,-0.14221556886212738,-0.14221556886229791)"><svg viewBox="0 0 334 334" data-background-color="#ffffff" preserveAspectRatio="xMidYMid meet" height="1000" width="1000" xmlns="http://www.w3.org/2000/svg" xmlns:xlink="http://www.w3.org/1999/xlink"><g id="tight-bounds" transform="matrix(1,0,0,1,0.04749999999998522,0.04750000000001364)"><svg viewBox="0 0 333.90454557049503 333.90454557049503" height="333.90454557049503" width="333.90454557049503"><g><svg></svg></g><g><svg viewBox="0 0 333.90454557049503 333.90454557049503" height="333.90454557049503" width="333.90454557049503"><g><path d="M0 166.952c0-92.205 74.747-166.952 166.952-166.952 92.205 0 166.952 74.747 166.953 166.952 0 92.205-74.747 166.952-166.953 166.953-92.205 0-166.952-74.747-166.952-166.953zM166.952 316.63c82.665 0 149.677-67.013 149.678-149.678 0-82.665-67.013-149.677-149.678-149.677-82.665 0-149.677 67.013-149.677 149.677 0 82.665 67.013 149.677 149.677 149.678z" data-fill-palette-color="tertiary" fill="#ee3e38" stroke="transparent"></path><ellipse rx="160.27418187383762" ry="160.27418187383762" cx="166.95227278524752" cy="166.95227278524752" fill="#ee3e38" stroke="transparent" stroke-width="0" fill-opacity="1" data-fill-palette-color="tertiary"></ellipse></g><g transform="matrix(1,0,0,1,93.8775093670441,71.17305217166896)"><svg viewBox="0 0 146.14952683640684 191.55844122715712" height="191.55844122715712" width="146.14952683640684"><g><svg viewBox="0 0 146.14952683640684 191.55844122715712" height="191.55844122715712" width="146.14952683640684"><g><svg viewBox="0 0 146.14952683640684 191.55844122715712" height="191.55844122715712" width="146.14952683640684"><g id="textblocktransform"><svg viewBox="0 0 146.14952683640684 191.55844122715712" height="191.55844122715712" width="146.14952683640684" id="textblock"><g><svg viewBox="0 0 146.14952683640684 191.55844122715712" height="191.55844122715712" width="146.14952683640684"><g transform="matrix(1,0,0,1,0,0)"><svg width="146.14952683640684" viewBox="-0.24000000953674316 -37.66800308227539 29.28999900817871 38.39800262451172" height="191.55844122715712" data-palette-color="#ffffff"><path d="M28.17-18.7L28.37-18.7Q28.47-18.36 28.76-17.97 29.05-17.58 29.05-17.38L29.05-17.38Q28.66-16.46 28.47-15.94 28.27-15.43 27.83-15.04L27.83-15.04Q27.83-14.89 27.54-14.4 27.25-13.92 26.88-13.35 26.51-12.79 26.15-12.28 25.78-11.77 25.68-11.57L25.68-11.57Q25.44-11.18 25.29-10.82 25.15-10.45 24.95-10.11L24.95-10.11Q24.51-9.33 24.05-8.64 23.58-7.96 23.19-7.13L23.19-7.13Q22.95-6.88 22.75-6.59 22.56-6.3 22.31-6.05L22.31-6.05Q21.73-4.98 20.97-4.05 20.21-3.13 19.58-2L19.58-2Q20.12-1.46 20.12-0.63L20.12-0.63Q20.12-0.2 19.87-0.17 19.63-0.15 19.43-0.05L19.43-0.05Q18.95 0.29 18.55 0.34 18.16 0.39 17.92 0.39L17.92 0.39Q17.38 0.39 16.75 0.37 16.11 0.34 15.67 0.44L15.67 0.44Q15.53 0.49 15.33 0.61 15.14 0.73 15.04 0.73L15.04 0.73Q14.65 0.73 14.48 0.61 14.31 0.49 14.01 0.39L14.01 0.39Q13.62-0.05 13.31-0.54 12.99-1.03 12.65-1.51L12.65-1.51Q12.35-1.86 12.01-2.12 11.67-2.39 11.38-2.78L11.38-2.78Q10.6-3.91 9.79-4.93 8.98-5.96 8.15-6.98L8.15-6.98Q7.76-7.52 7.3-8.01 6.84-8.5 6.45-8.98L6.45-8.98Q6.05-9.52 5.71-10.11 5.37-10.69 4.98-11.23L4.98-11.23Q4.69-11.72 4.15-12.43 3.61-13.13 3.03-13.87 2.44-14.6 1.83-15.26 1.22-15.92 0.78-16.26L0.78-16.26Q0.78-16.6 0.59-16.75 0.39-16.89 0.15-17.09L0.15-17.09Q0.05-17.33-0.1-17.55-0.24-17.77-0.24-18.07L-0.24-18.07Q-0.24-18.41-0.1-18.7L-0.1-18.7Q0-18.9 0.02-19.07 0.05-19.24 0.15-19.43L0.15-19.43Q0.39-20.07 0.85-20.56 1.32-21.04 1.56-21.68L1.56-21.68Q1.61-21.88 1.61-22.05 1.61-22.22 1.71-22.41L1.71-22.41Q1.86-22.75 2.15-23.02 2.44-23.29 2.69-23.63L2.69-23.63Q2.93-24.07 3.17-24.51 3.42-24.95 3.66-25.39L3.66-25.39Q4.35-26.51 5.18-27.56 6.01-28.61 6.74-29.64L6.74-29.64Q7.42-30.62 8.01-31.57 8.59-32.52 9.28-33.5L9.28-33.5Q9.62-33.98 10.06-34.59 10.5-35.21 10.96-35.79 11.43-36.38 11.91-36.89 12.4-37.4 12.89-37.65L12.89-37.65Q13.72-37.74 13.96-37.38 14.21-37.01 14.65-37.01L14.65-37.01Q15.33-36.87 15.58-36.57 15.82-36.28 16.06-36.04L16.06-36.04Q16.7-36.04 17.14-35.79 17.58-35.55 18.02-35.06L18.02-35.06Q17.82-34.52 17.5-34.08 17.19-33.64 16.94-33.15L16.94-33.15Q16.55-33.01 16.38-32.67 16.21-32.32 15.87-32.08L15.87-32.08Q15.33-31.25 14.79-30.44 14.26-29.64 13.72-28.91L13.72-28.91Q13.48-28.61 13.18-28.44 12.89-28.27 12.65-27.93L12.65-27.93Q12.55-27.78 12.5-27.61 12.45-27.44 12.35-27.29L12.35-27.29Q11.77-26.37 11.04-25.49 10.3-24.61 9.77-23.63L9.77-23.63Q9.52-23.29 9.38-22.92 9.23-22.56 9.03-22.22L9.03-22.22Q8.84-21.88 8.47-21.36 8.11-20.85 7.74-20.31 7.37-19.78 7.1-19.24 6.84-18.7 6.84-18.36L6.84-18.36Q6.88-18.12 7.47-17.38 8.06-16.65 8.79-15.82 9.52-14.99 10.18-14.23 10.84-13.48 10.99-13.33L10.99-13.33Q11.08-13.09 11.72-12.28 12.35-11.47 13.16-10.52 13.96-9.57 14.75-8.69 15.53-7.81 15.82-7.42L15.82-7.42 16.21-6.79Q16.31-6.84 16.72-7.47 17.14-8.11 17.58-8.89 18.02-9.67 18.38-10.35 18.75-11.04 18.85-11.23L18.85-11.23Q18.99-11.38 19.34-12.01 19.68-12.65 20.09-13.38 20.51-14.11 20.83-14.75 21.14-15.38 21.19-15.58L21.19-15.58 20.61-15.58Q19.82-15.58 19.07-15.5 18.31-15.43 17.53-15.19L17.53-15.19Q17.19-15.23 16.94-15.38 16.7-15.53 16.36-15.67L16.36-15.67Q16.21-16.16 16.24-16.36 16.26-16.55 16.21-16.65L16.21-16.65Q16.16-16.85 16.09-16.94 16.02-17.04 16.02-17.24L16.02-17.24Q16.02-17.58 15.92-17.8 15.82-18.02 15.72-18.31L15.72-18.31Q15.72-18.51 15.75-18.7 15.77-18.9 15.67-19.04L15.67-19.04Q15.77-19.92 15.53-20.31L15.53-20.31Q15.53-21 15.72-21.19 15.92-21.39 16.02-21.78L16.02-21.78Q16.46-21.63 16.77-21.85 17.09-22.07 17.43-22.07L17.43-22.07Q18.21-22.07 18.7-22.31L18.7-22.31Q19.14-22.36 19.6-22.36 20.07-22.36 20.51-22.46L20.51-22.46Q20.75-22.51 20.92-22.56 21.09-22.61 21.34-22.66L21.34-22.66Q21.63-22.71 21.97-22.71 22.31-22.71 22.61-22.71L22.61-22.71Q23.39-22.8 24.17-22.83 24.95-22.85 25.73-22.9L25.73-22.9Q25.98-22.8 26.2-22.75 26.42-22.71 26.61-22.61L26.61-22.61Q26.76-22.51 26.86-22.39 26.95-22.27 27.2-22.22L27.2-22.22Q27.44-21.97 27.54-21.73L27.54-21.73Q27.44-21.29 27.59-21.09L27.59-21.09Q27.34-20.85 27.32-20.43 27.29-20.02 27.25-19.68L27.25-19.68Q27.59-19.58 27.83-19.14 28.08-18.7 28.17-18.7L28.17-18.7Z" opacity="1" transform="matrix(1,0,0,1,0,0)" fill="#ffffff" class="wordmark-text-0" data-fill-palette-color="quaternary" id="text-0"></path></svg></g></svg></g></svg></g></svg></g><g></g></svg></g></svg></g></svg></g><defs></defs></svg><rect width="333.90454557049503" height="333.90454557049503" fill="none" stroke="none" visibility="hidden"></rect></g></svg></g></svg>